<svg width="934" height="324" viewBox="0 0 934 324" fill="none" xmlns="http://www.w3.org/2000/svg">
<path d="M836.722 323.419C803.696 323.419 775.545 310.182 760.202 291.881C742.418 270.683 728.804 239.71 728.804 202.104C728.804 163.633 742.277 135.495 760.405 114.038C778.534 92.5804 804.221 81.8479 837.536 81.8479C863.176 81.8479 884.316 88.8197 901.162 102.52C918.868 116.911 932.975 145.701 933.882 176.509L879.849 176.211C878.237 164.3 873.128 140.88 862.276 129.292C855.727 122.313 848.443 119.698 836.636 119.588C809.463 119.337 792.617 149.423 792.617 201.562C792.617 255.24 810.308 285.624 837.481 285.687C850.086 285.687 857.55 280.842 861.924 275.912C870.225 266.53 874.239 256.755 879.849 229.056L933.882 228.978C931.34 265.242 926.606 273.423 919.345 284.58C910.971 297.391 899.23 307.629 885.42 314.163C871.328 320.977 854.311 323.419 836.722 323.419Z" fill="#FF8C1C"/>
<path d="M84.8294 181.636L0 0H81.1912L125.312 107.026L169.291 0H240.655L159.816 181.636V317.476H84.8294V181.636Z" fill="#FF8C1C"/>
<path d="M368.924 281.675C398.038 281.675 428.63 274.703 444.904 260.759C461.179 246.816 469.324 227.73 469.324 203.493V200.204C469.324 175.881 461.184 156.745 444.904 142.796C428.63 128.853 398.038 121.881 368.924 121.881C339.811 121.881 309.054 128.798 292.623 142.6C276.192 156.402 267.891 175.488 267.867 199.866V203.462C267.867 227.795 276.007 246.899 292.287 260.775C308.545 274.585 339.357 281.565 368.924 281.675ZM500.174 290.703C467.618 312.898 418.388 324 368.275 324C318.161 324 269.041 313.008 236.704 290.923C204.367 268.838 188.194 239.962 188.194 204.255V200.659C188.194 164.659 204.471 135.406 237.025 112.899C269.581 90.3899 318.811 79.1393 368.932 79.1393C418.6 79.1393 467.61 90.2408 500.182 112.436C532.754 134.631 549.028 163.641 548.997 199.458V203.054C548.992 239.273 532.718 268.49 500.174 290.703Z" fill="#FF8C1C"/>
<path d="M573.979 85.2632H638.85V128.758C657.408 97.6601 677.352 81.9657 719.438 81.6516V131.781C689.44 131.781 677.188 136.735 661.852 146.698C646.517 156.661 638.842 173.266 638.81 196.655V317.476H573.979V85.2632Z" fill="#FF8C1C"/>
</svg>
